<svg width="20" height="20" viewBox="0 0 20 20" fill="none" xmlns="http://www.w3.org/2000/svg">
<path d="M8.00001 1C6.95906 0.99965 5.93592 1.27012 5.03114 1.78485C4.12635 2.29957 3.37105 3.04083 2.83943 3.9358C2.30782 4.83077 2.01819 5.84864 1.99901 6.88942C1.97982 7.93019 2.23174 8.95805 2.73001 9.872L2.02001 12.362C1.99502 12.4494 1.99436 12.542 2.01808 12.6298C2.0418 12.7176 2.08902 12.7972 2.15464 12.8602C2.22026 12.9231 2.30181 12.967 2.39051 12.9871C2.4792 13.0071 2.57169 13.0026 2.65801 12.974L4.99601 12.195C5.79287 12.6555 6.68498 12.9265 7.60332 12.987C8.52167 13.0475 9.44163 12.896 10.292 12.5441C11.1425 12.1922 11.9005 11.6494 12.5076 10.9577C13.1147 10.266 13.5545 9.44389 13.793 8.555C14.0315 7.6661 14.0624 6.73425 13.8831 5.83153C13.7039 4.92882 13.3194 4.07943 12.7594 3.34908C12.1994 2.61873 11.4789 2.027 10.6536 1.61967C9.82828 1.21233 8.92034 1.00031 8.00001 1Z" fill="url(#paint0_linear_82_44)"/>
<path d="M8.00001 1C6.95906 0.99965 5.93592 1.27012 5.03114 1.78485C4.12635 2.29957 3.37105 3.04083 2.83943 3.9358C2.30782 4.83077 2.01819 5.84864 1.99901 6.88942C1.97982 7.93019 2.23174 8.95805 2.73001 9.872L2.02001 12.362C1.99502 12.4494 1.99436 12.542 2.01808 12.6298C2.0418 12.7176 2.08902 12.7972 2.15464 12.8602C2.22026 12.9231 2.30181 12.967 2.39051 12.9871C2.4792 13.0071 2.57169 13.0026 2.65801 12.974L4.99601 12.195C5.79287 12.6555 6.68498 12.9265 7.60332 12.987C8.52167 13.0475 9.44163 12.896 10.292 12.5441C11.1425 12.1922 11.9005 11.6494 12.5076 10.9577C13.1147 10.266 13.5545 9.44389 13.793 8.555C14.0315 7.6661 14.0624 6.73425 13.8831 5.83153C13.7039 4.92882 13.3194 4.07943 12.7594 3.34908C12.1994 2.61873 11.4789 2.027 10.6536 1.61967C9.82828 1.21233 8.92034 1.00031 8.00001 1Z" fill="url(#paint1_radial_82_44)"/>
<path d="M6.5 5.5C6.36739 5.5 6.24021 5.55268 6.14645 5.64645C6.05268 5.74021 6 5.86739 6 6C6 6.13261 6.05268 6.25979 6.14645 6.35355C6.24021 6.44732 6.36739 6.5 6.5 6.5H9.5C9.63261 6.5 9.75979 6.44732 9.85355 6.35355C9.94732 6.25979 10 6.13261 10 6C10 5.86739 9.94732 5.74021 9.85355 5.64645C9.75979 5.55268 9.63261 5.5 9.5 5.5H6.5Z" fill="url(#paint2_linear_82_44)"/>
<path d="M6 8C6 7.86739 6.05268 7.74021 6.14645 7.64645C6.24021 7.55268 6.36739 7.5 6.5 7.5H8.5C8.63261 7.5 8.75979 7.55268 8.85355 7.64645C8.94732 7.74021 9 7.86739 9 8C9 8.13261 8.94732 8.25979 8.85355 8.35355C8.75979 8.44732 8.63261 8.5 8.5 8.5H6.5C6.36739 8.5 6.24021 8.44732 6.14645 8.35355C6.05268 8.25979 6 8.13261 6 8Z" fill="url(#paint3_linear_82_44)"/>
<path fill-rule="evenodd" clip-rule="evenodd" d="M13.925 10.212C14.233 10.0272 14.597 9.95912 14.951 10.02L15.724 10.153C16.0399 10.2075 16.3381 10.3372 16.5934 10.5311C16.8487 10.7249 17.0537 10.9773 17.191 11.267L18.391 13.794C18.951 14.984 19.078 15.98 18.959 16.796C18.865 17.4634 18.5802 18.0895 18.139 18.599C18.0163 18.7432 17.86 18.8549 17.6838 18.9241C17.5076 18.9934 17.317 19.0181 17.129 18.996C16.7766 18.9517 16.4541 18.7751 16.227 18.502L15.409 17.532C15.2682 17.3653 15.0927 17.2314 14.8947 17.1395C14.6968 17.0476 14.4812 17 14.263 17H10.737C10.5187 17.0001 10.3031 17.0479 10.1051 17.1399C9.90719 17.232 9.73173 17.3661 9.591 17.533L8.773 18.502C8.543 18.774 8.22 18.959 7.871 18.996C7.68306 19.0182 7.49256 18.9937 7.31637 18.9246C7.14019 18.8555 6.98377 18.744 6.861 18.6C6.41942 18.09 6.13466 17.4631 6.041 16.795C5.921 15.98 6.049 14.984 6.61 13.795V13.793L7.809 11.267C7.94635 10.9773 8.15131 10.7249 8.40662 10.5311C8.66192 10.3372 8.9601 10.2075 9.276 10.153L10.049 10.02C10.403 9.95912 10.767 10.0272 11.075 10.212L11.2 10.287C11.433 10.427 11.7 10.5 11.97 10.5H13.03C13.3012 10.4999 13.5673 10.4263 13.8 10.287L13.925 10.212Z" fill="url(#paint4_linear_82_44)"/>
<path d="M13.25 13.25C13.25 13.3485 13.2306 13.446 13.1929 13.537C13.1552 13.628 13.1 13.7107 13.0303 13.7803C12.9607 13.85 12.878 13.9052 12.787 13.9429C12.696 13.9806 12.5985 14 12.5 14C12.4015 14 12.304 13.9806 12.213 13.9429C12.122 13.9052 12.0393 13.85 11.9697 13.7803C11.9 13.7107 11.8448 13.628 11.8071 13.537C11.7694 13.446 11.75 13.3485 11.75 13.25C11.75 13.0511 11.829 12.8603 11.9697 12.7197C12.1103 12.579 12.3011 12.5 12.5 12.5C12.6989 12.5 12.8897 12.579 13.0303 12.7197C13.171 12.8603 13.25 13.0511 13.25 13.25Z" fill="#3E3E3E"/>
<defs>
<linearGradient id="paint0_linear_82_44" x1="2.42901" y1="3.25" x2="12.905" y2="21.111" gradientUnits="userSpaceOnUse">
<stop stop-color="#0FAFFF"/>
<stop offset="1" stop-color="#CC23D1"/>
</linearGradient>
<radialGradient id="paint1_radial_82_44" cx="0" cy="0" r="1" gradientUnits="userSpaceOnUse" gradientTransform="translate(10.031 14.344) rotate(-136.21) scale(6.27697 6.27698)">
<stop offset="0.181" stop-color="#1B44B1"/>
<stop offset="0.927" stop-color="#1B44B1" stop-opacity="0"/>
</radialGradient>
<linearGradient id="paint2_linear_82_44" x1="6.35" y1="5.553" x2="6.728" y2="8.801" gradientUnits="userSpaceOnUse">
<stop stop-color="#FDFDFD"/>
<stop offset="1" stop-color="#CCEAFF"/>
</linearGradient>
<linearGradient id="paint3_linear_82_44" x1="6.35" y1="5.553" x2="6.728" y2="8.801" gradientUnits="userSpaceOnUse">
<stop stop-color="#FDFDFD"/>
<stop offset="1" stop-color="#CCEAFF"/>
</linearGradient>
<linearGradient id="paint4_linear_82_44" x1="8.125" y1="11.375" x2="12.431" y2="19.552" gradientUnits="userSpaceOnUse">
<stop stop-color="#B5BBCE"/>
<stop offset="0.384" stop-color="#A0A7BE"/>
<stop offset="1" stop-color="#728192"/>
</linearGradient>
</defs>
</svg>
