<svg width="851" height="851" viewBox="0 0 851 851" fill="none" xmlns="http://www.w3.org/2000/svg">
<g clip-path="url(#clip0_41_22)">
<path d="M425.5 851C660.497 851 851 660.497 851 425.5C851 190.503 660.497 0 425.5 0C190.503 0 0 190.503 0 425.5C0 660.497 190.503 851 425.5 851Z" fill="#463E3E"/>
<path d="M822.153 425.5C822.153 206.435 644.565 28.8474 425.5 28.8474C206.435 28.8474 28.8475 206.435 28.8475 425.5C28.8475 644.565 206.435 822.153 425.5 822.153C644.565 822.153 822.153 644.565 822.153 425.5Z" fill="#F3F4EF"/>
<path d="M430.166 766.157C615.727 766.157 766.154 615.73 766.154 430.169C766.154 244.608 615.727 94.1812 430.166 94.1812C244.605 94.1812 94.1783 244.608 94.1783 430.169C94.1783 615.73 244.605 766.157 430.166 766.157Z" fill="#9ABACA"/>
<path d="M425.5 691.491C572.403 691.491 691.491 572.403 691.491 425.5C691.491 278.597 572.403 159.509 425.5 159.509C278.597 159.509 159.509 278.597 159.509 425.5C159.509 572.403 278.597 691.491 425.5 691.491Z" fill="#F8F8EF"/>
<path d="M310.797 444.742C340.632 444.742 364.819 420.555 364.819 390.72C364.819 360.885 340.632 336.698 310.797 336.698C280.961 336.698 256.775 360.885 256.775 390.72C256.775 420.555 280.961 444.742 310.797 444.742Z" fill="#224665"/>
<path d="M298.215 381.099C304.754 381.099 310.055 375.798 310.055 369.259C310.055 362.72 304.754 357.419 298.215 357.419C291.676 357.419 286.375 362.72 286.375 369.259C286.375 375.798 291.676 381.099 298.215 381.099Z" fill="#F5F6FD"/>
<path d="M541.683 444.742C571.519 444.742 595.705 420.555 595.705 390.72C595.705 360.885 571.519 336.698 541.683 336.698C511.848 336.698 487.661 360.885 487.661 390.72C487.661 420.555 511.848 444.742 541.683 444.742Z" fill="#224665"/>
<path d="M529.104 381.099C535.643 381.099 540.945 375.798 540.945 369.259C540.945 362.72 535.643 357.419 529.104 357.419C522.565 357.419 517.264 362.72 517.264 369.259C517.264 375.798 522.565 381.099 529.104 381.099Z" fill="#F5F6FD"/>
<path d="M486.683 489.034C514.854 505.917 470.423 551.498 425.005 551.498C379.588 551.498 335.885 504.111 364.798 489.034C391.965 480.417 379.588 514.881 425.005 514.881C470.423 514.881 463.92 475.392 486.683 489.034Z" fill="#224665"/>
</g>
<defs>
<clipPath id="clip0_41_22">
<rect width="851" height="851" fill="white"/>
</clipPath>
</defs>
</svg>
