<svg width="16" height="16" viewBox="0 0 16 16" fill="none" xmlns="http://www.w3.org/2000/svg">
<path d="M11.75 1C12.3385 1 12.8906 1.10938 13.4062 1.32812C13.9219 1.54688 14.3698 1.84896 14.75 2.23438C15.1302 2.61979 15.4323 3.07031 15.6562 3.58594C15.8802 4.10156 15.9922 4.65365 15.9922 5.24219C15.9922 5.54427 15.9609 5.84375 15.8984 6.14062C15.8359 6.4375 15.7422 6.72396 15.6172 7H12L10.5 5.4375L8 7.9375L4.5 4.4375L2 7H0.382812C0.257812 6.72396 0.164062 6.4375 0.101562 6.14062C0.0390625 5.84375 0.0078125 5.54427 0.0078125 5.24219C0.0078125 4.65365 0.117188 4.10156 0.335938 3.58594C0.554688 3.07031 0.856771 2.6224 1.24219 2.24219C1.6276 1.86198 2.07812 1.5599 2.59375 1.33594C3.10938 1.11198 3.66146 1 4.25 1C4.81771 1 5.35938 1.10677 5.875 1.32031C6.39062 1.53385 6.85156 1.84115 7.25781 2.24219L8 2.99219L8.74219 2.24219C9.14323 1.84115 9.60156 1.53385 10.1172 1.32031C10.6328 1.10677 11.1771 1 11.75 1ZM11 8H14.9844L14.875 8.125C14.8385 8.16667 14.7995 8.21094 14.7578 8.25781L8 15.0078L1.24219 8.25781C1.20052 8.21615 1.16146 8.17448 1.125 8.13281C1.08854 8.09115 1.05208 8.04688 1.01562 8H3L4.5 6.5625L8 10.0625L10.5 7.5625L11 8Z" fill="#F24822"/>
</svg>
