<svg width="16" height="16" viewBox="0 0 16 16" fill="none" xmlns="http://www.w3.org/2000/svg">
<path d="M6 9H10V14H6V9Z" fill="url(#paint0_linear_82_37)"/>
<path d="M8.687 2.27298C8.50133 2.09744 8.25551 1.99963 8 1.99963C7.74449 1.99963 7.49867 2.09744 7.313 2.27298L2.469 6.85298C2.3208 6.99321 2.20278 7.16221 2.12213 7.34963C2.04149 7.53705 1.99993 7.73895 2 7.94298V12.512C2 12.9098 2.15804 13.2913 2.43934 13.5726C2.72064 13.8539 3.10218 14.012 3.5 14.012H6.5V10.012C6.5 9.87937 6.55268 9.75219 6.64645 9.65842C6.74021 9.56465 6.86739 9.51198 7 9.51198H9C9.13261 9.51198 9.25979 9.56465 9.35355 9.65842C9.44732 9.75219 9.5 9.87937 9.5 10.012V14.012H12.5C12.8978 14.012 13.2794 13.8539 13.5607 13.5726C13.842 13.2913 14 12.9098 14 12.512V7.94198C13.9999 7.73787 13.9582 7.53593 13.8774 7.34851C13.7966 7.16108 13.6784 6.99213 13.53 6.85198L8.687 2.27298Z" fill="url(#paint1_linear_82_37)"/>
<path fill-rule="evenodd" clip-rule="evenodd" d="M8.00401 2.63599L13.735 8.04599C13.8066 8.11362 13.8909 8.16648 13.983 8.20154C14.075 8.23661 14.1731 8.25321 14.2716 8.25037C14.37 8.24754 14.467 8.22534 14.5569 8.18504C14.6468 8.14474 14.7279 8.08712 14.7955 8.01549C14.8631 7.94385 14.916 7.8596 14.9511 7.76753C14.9861 7.67547 15.0027 7.5774 14.9999 7.47892C14.9971 7.38044 14.9749 7.28349 14.9346 7.19359C14.8943 7.1037 14.8366 7.02262 14.765 6.95499L8.86001 1.38199C8.62669 1.16161 8.31755 1.03942 7.99661 1.04072C7.67567 1.04202 7.36753 1.16672 7.13601 1.38899L1.23001 7.05899C1.09305 7.19809 1.01573 7.38511 1.01447 7.58031C1.0132 7.77551 1.08809 7.96352 1.22323 8.10438C1.35837 8.24525 1.5431 8.32788 1.73819 8.33471C1.93328 8.34155 2.12334 8.27205 2.26801 8.14099L8.00401 2.63599Z" fill="url(#paint2_linear_82_37)"/>
<defs>
<linearGradient id="paint0_linear_82_37" x1="8" y1="9" x2="4.796" y2="14.698" gradientUnits="userSpaceOnUse">
<stop stop-color="#944600"/>
<stop offset="1" stop-color="#CD8E02"/>
</linearGradient>
<linearGradient id="paint1_linear_82_37" x1="3.145" y1="1.41298" x2="14.93" y2="10.981" gradientUnits="userSpaceOnUse">
<stop stop-color="#FFD394"/>
<stop offset="1" stop-color="#FFB357"/>
</linearGradient>
<linearGradient id="paint2_linear_82_37" x1="10.262" y1="-0.696013" x2="6.94501" y2="7.89499" gradientUnits="userSpaceOnUse">
<stop stop-color="#FF921F"/>
<stop offset="1" stop-color="#EB4824"/>
</linearGradient>
</defs>
</svg>
