<svg width="16" height="17" viewBox="0 0 16 17" fill="none" xmlns="http://www.w3.org/2000/svg">
<path d="M1.5 8C1.5 7.86739 1.44732 7.74021 1.35355 7.64645C1.25979 7.55268 1.13261 7.5 1 7.5C0.867392 7.5 0.740215 7.55268 0.646447 7.64645C0.552679 7.74021 0.5 7.86739 0.5 8C0.499807 9.37227 1.01261 10.695 1.93772 11.7086C2.86283 12.7221 4.13342 13.3532 5.5 13.478V15.5C5.5 15.6326 5.55268 15.7598 5.64645 15.8536C5.74021 15.9473 5.86739 16 6 16C6.13261 16 6.25979 15.9473 6.35355 15.8536C6.44732 15.7598 6.5 15.6326 6.5 15.5V14.794C6.17016 14.0742 5.99961 13.2917 6 12.5C4.80653 12.5 3.66193 12.0259 2.81802 11.182C1.97411 10.3381 1.5 9.19347 1.5 8ZM9 3V7.6C8.32678 7.94351 7.73158 8.42209 7.25155 9.00587C6.77152 9.58965 6.41696 10.2661 6.21 10.993C6.13933 10.9977 6.06933 11 6 11C5.20435 11 4.44129 10.6839 3.87868 10.1213C3.31607 9.55871 3 8.79565 3 8V3C3 2.20435 3.31607 1.44129 3.87868 0.87868C4.44129 0.316071 5.20435 0 6 0C6.79565 0 7.55871 0.316071 8.12132 0.87868C8.68393 1.44129 9 2.20435 9 3ZM14 12.5C14 13.163 13.7366 13.7989 13.2678 14.2678C12.7989 14.7366 12.163 15 11.5 15C10.837 15 10.2011 14.7366 9.73223 14.2678C9.26339 13.7989 9 13.163 9 12.5C9 11.837 9.26339 11.2011 9.73223 10.7322C10.2011 10.2634 10.837 10 11.5 10C12.163 10 12.7989 10.2634 13.2678 10.7322C13.7366 11.2011 14 11.837 14 12.5ZM16 12.5C16 13.6935 15.5259 14.8381 14.682 15.682C13.8381 16.5259 12.6935 17 11.5 17C10.3065 17 9.16193 16.5259 8.31802 15.682C7.47411 14.8381 7 13.6935 7 12.5C7 11.3065 7.47411 10.1619 8.31802 9.31802C9.16193 8.47411 10.3065 8 11.5 8C12.6935 8 13.8381 8.47411 14.682 9.31802C15.5259 10.1619 16 11.3065 16 12.5ZM8 12.5C8 12.9596 8.09053 13.4148 8.26642 13.8394C8.44231 14.264 8.70012 14.6499 9.02513 14.9749C9.35013 15.2999 9.73597 15.5577 10.1606 15.7336C10.5852 15.9095 11.0404 16 11.5 16C11.9596 16 12.4148 15.9095 12.8394 15.7336C13.264 15.5577 13.6499 15.2999 13.9749 14.9749C14.2999 14.6499 14.5577 14.264 14.7336 13.8394C14.9095 13.4148 15 12.9596 15 12.5C15 11.5717 14.6313 10.6815 13.9749 10.0251C13.3185 9.36875 12.4283 9 11.5 9C10.5717 9 9.6815 9.36875 9.02513 10.0251C8.36875 10.6815 8 11.5717 8 12.5Z" fill="#555555"/>
</svg>
