<svg width="24" height="24" viewBox="0 0 24 24" fill="none" xmlns="http://www.w3.org/2000/svg">
<path d="M19.8 13.6C19.85 13.25 19.9 12.9 19.9 12.5C19.9 12.1 19.85 11.75 19.8 11.4L22.05 9.79999C22.25 9.64999 22.35 9.34999 22.2 9.09999L20 5.39999C19.85 5.14999 19.6 5.04999 19.35 5.19999L16.85 6.34999C16.25 5.89999 15.65 5.54999 14.95 5.24999L14.7 2.49999C14.65 2.24999 14.45 2.04999 14.2 2.04999H9.89999C9.64999 2.04999 9.39999 2.24999 9.39999 2.49999L9.14999 5.24999C8.44999 5.54999 7.79999 5.89999 7.24999 6.34999L4.74999 5.19999C4.49999 5.09999 4.19999 5.19999 4.09999 5.39999L1.94999 9.09999C1.79999 9.34999 1.89999 9.64999 2.09999 9.79999L4.34999 11.4C4.29999 11.75 4.24999 12.1 4.24999 12.5C4.24999 12.9 4.29999 13.25 4.34999 13.6L1.99999 15.2C1.79999 15.35 1.69999 15.65 1.84999 15.9L3.99999 19.6C4.14999 19.85 4.39999 19.95 4.64999 19.8L7.14999 18.65C7.74999 19.1 8.34999 19.45 9.04999 19.75L9.29999 22.5C9.34999 22.75 9.54999 22.95 9.79999 22.95H14.1C14.35 22.95 14.6 22.75 14.6 22.5L14.85 19.75C15.55 19.45 16.2 19.1 16.75 18.65L19.25 19.8C19.5 19.9 19.8 19.8 19.9 19.6L22.05 15.9C22.2 15.65 22.1 15.35 21.9 15.2L19.8 13.6ZM12 17.5C9.24999 17.5 6.99999 15.25 6.99999 12.5C6.99999 9.74999 9.24999 7.49999 12 7.49999C14.75 7.49999 17 9.74999 17 12.5C17 15.25 14.75 17.5 12 17.5Z" fill="#607D8B"/>
<path d="M12 6.5C8.7 6.5 6 9.2 6 12.5C6 15.8 8.7 18.5 12 18.5C15.3 18.5 18 15.8 18 12.5C18 9.2 15.3 6.5 12 6.5ZM12 15C10.6 15 9.5 13.9 9.5 12.5C9.5 11.1 10.6 10 12 10C13.4 10 14.5 11.1 14.5 12.5C14.5 13.9 13.4 15 12 15Z" fill="#455A64"/>
</svg>
