<?xml version="1.0" standalone="no"?>
<!DOCTYPE svg PUBLIC "-//W3C//DTD SVG 20010904//EN"
 "http://www.w3.org/TR/2001/REC-SVG-20010904/DTD/svg10.dtd">
<svg version="1.0" xmlns="http://www.w3.org/2000/svg"
 width="225.000000pt" height="225.000000pt" viewBox="0 0 225.000000 225.000000"
 preserveAspectRatio="xMidYMid meet">

<g transform="translate(0.000000,225.000000) scale(0.100000,-0.100000)"
fill="#000000" stroke="none">
<path d="M982 2239 c-235 -30 -453 -134 -626 -299 -303 -288 -421 -701 -316
-1105 138 -527 657 -885 1199 -826 258 28 470 125 655 301 359 341 455 863
241 1306 -108 223 -314 426 -538 529 -187 86 -411 121 -615 94z m411 -173
c329 -99 575 -345 673 -673 32 -108 44 -310 24 -429 -21 -130 -77 -271 -156
-389 -36 -55 -132 -165 -143 -165 -3 0 -12 35 -19 77 -27 177 -153 348 -312
425 -112 54 -163 63 -345 62 -145 -1 -168 -3 -240 -27 -208 -69 -365 -249
-397 -459 -7 -43 -16 -78 -19 -78 -11 0 -107 110 -143 165 -79 118 -135 259
-156 389 -20 119 -8 321 24 429 106 355 381 609 747 692 45 10 109 14 219 11
132 -3 168 -7 243 -30z m-12 -1278 c170 -84 259 -234 259 -435 l0 -64 -92 -44
c-153 -74 -224 -89 -423 -89 -198 0 -265 14 -421 88 l-94 45 0 64 c0 192 85
344 239 426 85 45 118 50 297 48 l160 -2 75 -37z"/>
<path d="M1040 1667 c-63 -18 -111 -49 -164 -108 -54 -60 -76 -121 -76 -211 0
-128 60 -228 172 -289 58 -32 69 -34 153 -34 84 0 94 2 154 35 119 64 176 168
169 308 -4 92 -28 148 -90 211 -80 81 -213 118 -318 88z m195 -171 c69 -53 92
-143 56 -221 -28 -62 -104 -115 -166 -115 -30 0 -88 24 -116 47 -64 54 -85
143 -50 218 34 75 90 107 177 103 49 -3 69 -10 99 -32z"/>
</g>
</svg>
